<svg width="16" height="17" viewBox="0 0 16 17" fill="none" xmlns="http://www.w3.org/2000/svg">
<circle cx="8" cy="8.5" r="8" fill="#E27475"/>
<path d="M8.00439 9.97949C7.79053 9.97949 7.625 9.91797 7.50781 9.79492C7.39355 9.67188 7.3335 9.50049 7.32764 9.28076L7.24414 5.0752C7.24414 5.0459 7.24268 5.01807 7.23975 4.9917C7.23975 4.9624 7.23975 4.9375 7.23975 4.91699C7.23975 4.68262 7.31006 4.49805 7.45068 4.36328C7.59131 4.22852 7.77588 4.16113 8.00439 4.16113C8.23584 4.16113 8.42041 4.22852 8.55811 4.36328C8.6958 4.49805 8.76465 4.68262 8.76465 4.91699C8.76465 4.9375 8.76465 4.9624 8.76465 4.9917C8.76465 5.01807 8.76318 5.0459 8.76025 5.0752L8.68555 9.28076C8.67969 9.50049 8.61816 9.67188 8.50098 9.79492C8.38379 9.91797 8.21826 9.97949 8.00439 9.97949ZM8.00439 12.5679C7.84033 12.5679 7.69092 12.5298 7.55615 12.4536C7.42139 12.3774 7.31299 12.2734 7.23096 12.1416C7.15186 12.0127 7.1123 11.8691 7.1123 11.7109C7.1123 11.5527 7.15186 11.4092 7.23096 11.2803C7.31299 11.1514 7.42139 11.0488 7.55615 10.9727C7.69092 10.8965 7.84033 10.8584 8.00439 10.8584C8.16553 10.8584 8.31348 10.8965 8.44824 10.9727C8.58301 11.0488 8.68994 11.1514 8.76904 11.2803C8.84814 11.4092 8.8877 11.5527 8.8877 11.7109C8.8877 11.8691 8.84814 12.0127 8.76904 12.1416C8.68994 12.2734 8.58301 12.3774 8.44824 12.4536C8.31348 12.5298 8.16553 12.5679 8.00439 12.5679Z" fill="white"/>
</svg>
