<svg width="16" height="16" viewBox="0 0 16 16" fill="none" xmlns="http://www.w3.org/2000/svg">
<path d="M0 6.23438C0 5.375 0.161458 4.57031 0.484375 3.82031C0.807292 3.0651 1.25521 2.40104 1.82812 1.82812C2.40104 1.25521 3.0625 0.807292 3.8125 0.484375C4.56771 0.161458 5.375 0 6.23438 0C7.09375 0 7.89844 0.161458 8.64844 0.484375C9.40365 0.807292 10.0677 1.25521 10.6406 1.82812C11.2135 2.40104 11.6615 3.0651 11.9844 3.82031C12.3073 4.57031 12.4688 5.375 12.4688 6.23438C12.4688 6.94792 12.3542 7.625 12.125 8.26562C11.901 8.90625 11.5885 9.48698 11.1875 10.0078L15.0078 13.8516C15.0911 13.9349 15.1536 14.0312 15.1953 14.1406C15.2422 14.25 15.2656 14.3672 15.2656 14.4922C15.2656 14.6641 15.2266 14.8203 15.1484 14.9609C15.0755 15.1016 14.9714 15.2109 14.8359 15.2891C14.7005 15.3724 14.5443 15.4141 14.3672 15.4141C14.2422 15.4141 14.1224 15.3906 14.0078 15.3438C13.8984 15.3021 13.7969 15.237 13.7031 15.1484L9.85938 11.2969C9.34896 11.6615 8.78646 11.9479 8.17188 12.1562C7.55729 12.3646 6.91146 12.4688 6.23438 12.4688C5.375 12.4688 4.56771 12.3073 3.8125 11.9844C3.0625 11.6615 2.40104 11.2135 1.82812 10.6406C1.25521 10.0677 0.807292 9.40625 0.484375 8.65625C0.161458 7.90104 0 7.09375 0 6.23438ZM1.33594 6.23438C1.33594 6.91146 1.46094 7.54688 1.71094 8.14062C1.96615 8.72917 2.31771 9.2474 2.76562 9.69531C3.21875 10.1432 3.73958 10.4948 4.32812 10.75C4.92188 11.0052 5.55729 11.1328 6.23438 11.1328C6.91146 11.1328 7.54427 11.0052 8.13281 10.75C8.72656 10.4948 9.2474 10.1432 9.69531 9.69531C10.1432 9.2474 10.4948 8.72917 10.75 8.14062C11.0052 7.54688 11.1328 6.91146 11.1328 6.23438C11.1328 5.55729 11.0052 4.92448 10.75 4.33594C10.4948 3.74219 10.1432 3.22135 9.69531 2.77344C9.2474 2.32031 8.72656 1.96875 8.13281 1.71875C7.54427 1.46354 6.91146 1.33594 6.23438 1.33594C5.55729 1.33594 4.92188 1.46354 4.32812 1.71875C3.73958 1.96875 3.21875 2.32031 2.76562 2.77344C2.31771 3.22135 1.96615 3.74219 1.71094 4.33594C1.46094 4.92448 1.33594 5.55729 1.33594 6.23438ZM3.77344 5.73438C3.61198 5.73438 3.47917 5.68229 3.375 5.57812C3.27604 5.46875 3.22656 5.33854 3.22656 5.1875C3.22656 5.03125 3.27604 4.90104 3.375 4.79688C3.47917 4.69271 3.61198 4.64062 3.77344 4.64062H8.71875C8.875 4.64062 9.00521 4.69271 9.10938 4.79688C9.21354 4.90104 9.26562 5.03125 9.26562 5.1875C9.26562 5.33854 9.21354 5.46875 9.10938 5.57812C9.00521 5.68229 8.875 5.73438 8.71875 5.73438H3.77344ZM3.77344 7.82031C3.61198 7.82031 3.47917 7.76823 3.375 7.66406C3.27604 7.5599 3.22656 7.42969 3.22656 7.27344C3.22656 7.1224 3.27604 6.99479 3.375 6.89062C3.47917 6.78125 3.61198 6.72656 3.77344 6.72656H7.36719C7.51823 6.72656 7.64583 6.78125 7.75 6.89062C7.85938 6.99479 7.91406 7.1224 7.91406 7.27344C7.91406 7.42969 7.85938 7.5599 7.75 7.66406C7.64583 7.76823 7.51823 7.82031 7.36719 7.82031H3.77344Z" fill="#7E7E7E"/>
</svg>
