<svg width="59" height="16" viewBox="0 0 59 16" fill="none" xmlns="http://www.w3.org/2000/svg">
<mask id="path-1-outside-1_22_5040" maskUnits="userSpaceOnUse" x="1.32739" y="0.404785" width="13" height="15" fill="black">
<rect fill="white" x="1.32739" y="0.404785" width="13" height="15"/>
<path fill-rule="evenodd" clip-rule="evenodd" d="M10.0877 1.74315L9.53019 2.67237C10.6079 3.22959 11.3476 4.35263 11.3476 5.64733C11.3476 5.77074 11.2476 5.87062 11.1243 5.87062H4.87241C4.74911 5.87062 4.64913 5.77074 4.64913 5.64733C4.64913 4.35263 5.38884 3.22959 6.46653 2.67237L5.90902 1.74315C5.84556 1.63741 5.87979 1.50027 5.98556 1.43681C6.09131 1.37335 6.22845 1.40736 6.2919 1.51335L6.88036 2.49408C7.23063 2.36946 7.60587 2.2981 7.99836 2.2981C8.39085 2.2981 8.76609 2.36946 9.11636 2.49408L9.70482 1.51335C9.76827 1.40736 9.90519 1.37313 10.0112 1.43681C10.1169 1.50027 10.1512 1.63741 10.0877 1.74315ZM7.99836 2.74467C6.47301 2.74467 5.21856 3.92737 5.1042 5.42405H10.8925C10.7782 3.92737 9.52371 2.74467 7.99836 2.74467ZM9.26189 3.94314H9.55629C9.63761 3.94314 9.7035 4.00896 9.7035 4.09035V4.38474C9.7035 4.46611 9.63761 4.53195 9.55629 4.53195H9.26189C9.18059 4.53195 9.11468 4.46611 9.11468 4.38474V4.09035C9.11468 4.00896 9.18059 3.94314 9.26189 3.94314ZM6.73491 3.94314H6.44051C6.35919 3.94314 6.2933 4.00896 6.2933 4.09035V4.38474C6.2933 4.46611 6.35919 4.53195 6.44051 4.53195H6.73491C6.81621 4.53195 6.88212 4.46611 6.88212 4.38474V4.09035C6.88212 4.00896 6.81621 3.94314 6.73491 3.94314ZM4.87241 6.6278H11.1243C11.2476 6.6278 11.3476 6.72767 11.3476 6.85108V11.3549C11.3476 11.9495 10.8633 12.4331 10.2681 12.4331H10.0079V13.7741C10.0079 14.2658 9.60724 14.666 9.11477 14.666C8.6223 14.666 8.22164 14.2658 8.22164 13.7741V12.4331H7.77508V13.7741C7.77508 14.2658 7.37442 14.666 6.88195 14.666C6.38948 14.666 5.98882 14.2658 5.98882 13.7741V12.4331H5.72858C5.1334 12.4331 4.64913 11.9495 4.64913 11.3549V6.85108C4.64913 6.72767 4.74911 6.6278 4.87241 6.6278ZM10.2681 11.9866C10.6171 11.9866 10.901 11.7031 10.901 11.3549V7.07436H5.09569V11.3549C5.09569 11.7031 5.37959 11.9866 5.72858 11.9866H6.2121C6.3354 11.9866 6.43538 12.0864 6.43538 12.2099V13.7741C6.43538 14.0197 6.63567 14.2194 6.88195 14.2194C7.12823 14.2194 7.32851 14.0197 7.32851 13.7741V12.2099C7.32851 12.0864 7.4285 11.9866 7.5518 11.9866H8.44492C8.56822 11.9866 8.66821 12.0864 8.66821 12.2099V13.7741C8.66821 14.0197 8.86849 14.2194 9.11477 14.2194C9.36105 14.2194 9.56134 14.0197 9.56134 13.7741V12.2099C9.56134 12.0864 9.66132 11.9866 9.78462 11.9866H10.2681ZM12.8834 6.62922C12.4525 6.62922 12.1019 6.98028 12.1019 7.41158V10.5358C12.1019 10.9671 12.4525 11.3181 12.8834 11.3181C13.3143 11.3181 13.6649 10.9671 13.6649 10.5358V7.41158C13.6649 6.98028 13.3143 6.62922 12.8834 6.62922ZM13.2183 10.5358C13.2183 10.7209 13.0681 10.8716 12.8834 10.8716C12.6987 10.8716 12.5485 10.7209 12.5485 10.5358V7.41158C12.5485 7.22645 12.6987 7.07578 12.8834 7.07578C13.0681 7.07578 13.2183 7.22645 13.2183 7.41158V10.5358ZM2.32739 7.41158C2.32739 6.98028 2.67801 6.62922 3.10888 6.62922C3.53975 6.62922 3.89037 6.98028 3.89037 7.41158V10.5358C3.89037 10.9671 3.53975 11.3181 3.10888 11.3181C2.67801 11.3181 2.32739 10.9671 2.32739 10.5358V7.41158ZM3.10888 10.8716C3.29356 10.8716 3.4438 10.7209 3.4438 10.5358V7.41158C3.4438 7.22645 3.29356 7.07578 3.10888 7.07578C2.9242 7.07578 2.77396 7.22645 2.77396 7.41158V10.5358C2.77396 10.7209 2.9242 10.8716 3.10888 10.8716Z"/>
</mask>
<path fill-rule="evenodd" clip-rule="evenodd" d="M10.0877 1.74315L9.53019 2.67237C10.6079 3.22959 11.3476 4.35263 11.3476 5.64733C11.3476 5.77074 11.2476 5.87062 11.1243 5.87062H4.87241C4.74911 5.87062 4.64913 5.77074 4.64913 5.64733C4.64913 4.35263 5.38884 3.22959 6.46653 2.67237L5.90902 1.74315C5.84556 1.63741 5.87979 1.50027 5.98556 1.43681C6.09131 1.37335 6.22845 1.40736 6.2919 1.51335L6.88036 2.49408C7.23063 2.36946 7.60587 2.2981 7.99836 2.2981C8.39085 2.2981 8.76609 2.36946 9.11636 2.49408L9.70482 1.51335C9.76827 1.40736 9.90519 1.37313 10.0112 1.43681C10.1169 1.50027 10.1512 1.63741 10.0877 1.74315ZM7.99836 2.74467C6.47301 2.74467 5.21856 3.92737 5.1042 5.42405H10.8925C10.7782 3.92737 9.52371 2.74467 7.99836 2.74467ZM9.26189 3.94314H9.55629C9.63761 3.94314 9.7035 4.00896 9.7035 4.09035V4.38474C9.7035 4.46611 9.63761 4.53195 9.55629 4.53195H9.26189C9.18059 4.53195 9.11468 4.46611 9.11468 4.38474V4.09035C9.11468 4.00896 9.18059 3.94314 9.26189 3.94314ZM6.73491 3.94314H6.44051C6.35919 3.94314 6.2933 4.00896 6.2933 4.09035V4.38474C6.2933 4.46611 6.35919 4.53195 6.44051 4.53195H6.73491C6.81621 4.53195 6.88212 4.46611 6.88212 4.38474V4.09035C6.88212 4.00896 6.81621 3.94314 6.73491 3.94314ZM4.87241 6.6278H11.1243C11.2476 6.6278 11.3476 6.72767 11.3476 6.85108V11.3549C11.3476 11.9495 10.8633 12.4331 10.2681 12.4331H10.0079V13.7741C10.0079 14.2658 9.60724 14.666 9.11477 14.666C8.6223 14.666 8.22164 14.2658 8.22164 13.7741V12.4331H7.77508V13.7741C7.77508 14.2658 7.37442 14.666 6.88195 14.666C6.38948 14.666 5.98882 14.2658 5.98882 13.7741V12.4331H5.72858C5.1334 12.4331 4.64913 11.9495 4.64913 11.3549V6.85108C4.64913 6.72767 4.74911 6.6278 4.87241 6.6278ZM10.2681 11.9866C10.6171 11.9866 10.901 11.7031 10.901 11.3549V7.07436H5.09569V11.3549C5.09569 11.7031 5.37959 11.9866 5.72858 11.9866H6.2121C6.3354 11.9866 6.43538 12.0864 6.43538 12.2099V13.7741C6.43538 14.0197 6.63567 14.2194 6.88195 14.2194C7.12823 14.2194 7.32851 14.0197 7.32851 13.7741V12.2099C7.32851 12.0864 7.4285 11.9866 7.5518 11.9866H8.44492C8.56822 11.9866 8.66821 12.0864 8.66821 12.2099V13.7741C8.66821 14.0197 8.86849 14.2194 9.11477 14.2194C9.36105 14.2194 9.56134 14.0197 9.56134 13.7741V12.2099C9.56134 12.0864 9.66132 11.9866 9.78462 11.9866H10.2681ZM12.8834 6.62922C12.4525 6.62922 12.1019 6.98028 12.1019 7.41158V10.5358C12.1019 10.9671 12.4525 11.3181 12.8834 11.3181C13.3143 11.3181 13.6649 10.9671 13.6649 10.5358V7.41158C13.6649 6.98028 13.3143 6.62922 12.8834 6.62922ZM13.2183 10.5358C13.2183 10.7209 13.0681 10.8716 12.8834 10.8716C12.6987 10.8716 12.5485 10.7209 12.5485 10.5358V7.41158C12.5485 7.22645 12.6987 7.07578 12.8834 7.07578C13.0681 7.07578 13.2183 7.22645 13.2183 7.41158V10.5358ZM2.32739 7.41158C2.32739 6.98028 2.67801 6.62922 3.10888 6.62922C3.53975 6.62922 3.89037 6.98028 3.89037 7.41158V10.5358C3.89037 10.9671 3.53975 11.3181 3.10888 11.3181C2.67801 11.3181 2.32739 10.9671 2.32739 10.5358V7.41158ZM3.10888 10.8716C3.29356 10.8716 3.4438 10.7209 3.4438 10.5358V7.41158C3.4438 7.22645 3.29356 7.07578 3.10888 7.07578C2.9242 7.07578 2.77396 7.22645 2.77396 7.41158V10.5358C2.77396 10.7209 2.9242 10.8716 3.10888 10.8716Z" fill="#B0B0B0"/>
<path d="M9.53019 2.67237L9.31581 2.54374L9.17879 2.77212L9.41536 2.89444L9.53019 2.67237ZM10.0877 1.74315L9.87334 1.61452L9.87333 1.61453L10.0877 1.74315ZM6.46653 2.67237L6.58135 2.89444L6.81793 2.77212L6.68091 2.54374L6.46653 2.67237ZM5.90902 1.74315L6.12339 1.61453L6.12338 1.61452L5.90902 1.74315ZM5.98556 1.43681L6.11418 1.65119L6.1142 1.65118L5.98556 1.43681ZM6.2919 1.51335L6.07741 1.64177L6.07753 1.64198L6.2919 1.51335ZM6.88036 2.49408L6.66599 2.6227L6.77131 2.79822L6.96416 2.72961L6.88036 2.49408ZM9.11636 2.49408L9.03256 2.72961L9.22541 2.79822L9.33073 2.6227L9.11636 2.49408ZM9.70482 1.51335L9.91919 1.64198L9.91931 1.64177L9.70482 1.51335ZM10.0112 1.43681L9.88239 1.6511L9.88254 1.65119L10.0112 1.43681ZM5.1042 5.42405L4.85492 5.405L4.83437 5.67405H5.1042V5.42405ZM10.8925 5.42405V5.67405H11.1624L11.1418 5.405L10.8925 5.42405ZM10.0079 12.4331V12.1831H9.7579V12.4331H10.0079ZM8.22164 12.4331H8.47164V12.1831H8.22164V12.4331ZM7.77508 12.4331V12.1831H7.52508V12.4331H7.77508ZM5.98882 12.4331H6.23882V12.1831H5.98882V12.4331ZM10.901 7.07436H11.151V6.82436H10.901V7.07436ZM5.09569 7.07436V6.82436H4.84569V7.07436H5.09569ZM9.74456 2.80099L10.3021 1.87178L9.87333 1.61453L9.31581 2.54374L9.74456 2.80099ZM11.5976 5.64733C11.5976 4.25488 10.8019 3.04845 9.64501 2.45029L9.41536 2.89444C10.4139 3.41073 11.0976 4.45039 11.0976 5.64733H11.5976ZM11.1243 6.12062C11.3856 6.12062 11.5976 5.9089 11.5976 5.64733H11.0976C11.0976 5.63259 11.1096 5.62062 11.1243 5.62062V6.12062ZM4.87241 6.12062H11.1243V5.62062H4.87241V6.12062ZM4.39913 5.64733C4.39913 5.9089 4.61112 6.12062 4.87241 6.12062V5.62062C4.8871 5.62062 4.89913 5.63259 4.89913 5.64733H4.39913ZM6.35171 2.45029C5.19486 3.04845 4.39913 4.25488 4.39913 5.64733H4.89913C4.89913 4.45039 5.58282 3.41073 6.58135 2.89444L6.35171 2.45029ZM5.69464 1.87178L6.25216 2.80099L6.68091 2.54374L6.12339 1.61453L5.69464 1.87178ZM5.85694 1.22243C5.63269 1.35698 5.5602 1.64773 5.69465 1.87179L6.12338 1.61452C6.13093 1.62709 6.12689 1.64356 6.11418 1.65119L5.85694 1.22243ZM6.5064 1.38494C6.37169 1.15993 6.08069 1.08817 5.85692 1.22245L6.1142 1.65118C6.10193 1.65854 6.0852 1.65479 6.07741 1.64177L6.5064 1.38494ZM7.09473 2.36545L6.50627 1.38472L6.07753 1.64198L6.66599 2.6227L7.09473 2.36545ZM7.99836 2.0481C7.57524 2.0481 7.1717 2.12507 6.79657 2.25854L6.96416 2.72961C7.28955 2.61385 7.6365 2.5481 7.99836 2.5481V2.0481ZM9.20015 2.25854C8.82502 2.12507 8.42147 2.0481 7.99836 2.0481V2.5481C8.36022 2.5481 8.70717 2.61385 9.03256 2.72961L9.20015 2.25854ZM9.49045 1.38472L8.90199 2.36545L9.33073 2.6227L9.91919 1.64198L9.49045 1.38472ZM10.1399 1.22253C9.91557 1.0877 9.62484 1.16025 9.49032 1.38493L9.91931 1.64177C9.91171 1.65447 9.89481 1.65856 9.88239 1.6511L10.1399 1.22253ZM10.3021 1.87179C10.4365 1.64773 10.364 1.35698 10.1398 1.22243L9.88254 1.65119C9.86983 1.64356 9.86579 1.62709 9.87334 1.61452L10.3021 1.87179ZM5.35347 5.4431C5.45796 4.07564 6.60477 2.99467 7.99836 2.99467V2.49467C6.34124 2.49467 4.97916 3.7791 4.85492 5.405L5.35347 5.4431ZM10.8925 5.17405H5.1042V5.67405H10.8925V5.17405ZM7.99836 2.99467C9.39195 2.99467 10.5388 4.07564 10.6432 5.4431L11.1418 5.405C11.0176 3.7791 9.65548 2.49467 7.99836 2.49467V2.99467ZM9.55629 3.69314H9.26189V4.19314H9.55629V3.69314ZM9.9535 4.09035C9.9535 3.87082 9.7756 3.69314 9.55629 3.69314V4.19314C9.49961 4.19314 9.4535 4.14711 9.4535 4.09035H9.9535ZM9.9535 4.38474V4.09035H9.4535V4.38474H9.9535ZM9.55629 4.78195C9.77563 4.78195 9.9535 4.60423 9.9535 4.38474H9.4535C9.4535 4.32799 9.49959 4.28196 9.55629 4.28196V4.78195ZM9.26189 4.78195H9.55629V4.28196H9.26189V4.78195ZM8.86468 4.38474C8.86468 4.60425 9.0426 4.78195 9.26189 4.78195V4.28196C9.31859 4.28196 9.36468 4.32796 9.36468 4.38474H8.86468ZM8.86468 4.09035V4.38474H9.36468V4.09035H8.86468ZM9.26189 3.69314C9.04262 3.69314 8.86468 3.87079 8.86468 4.09035H9.36468C9.36468 4.14713 9.31856 4.19314 9.26189 4.19314V3.69314ZM6.44051 4.19314H6.73491V3.69314H6.44051V4.19314ZM6.5433 4.09035C6.5433 4.14711 6.49719 4.19314 6.44051 4.19314V3.69314C6.2212 3.69314 6.0433 3.87082 6.0433 4.09035H6.5433ZM6.5433 4.38474V4.09035H6.0433V4.38474H6.5433ZM6.44051 4.28196C6.49721 4.28196 6.5433 4.32799 6.5433 4.38474H6.0433C6.0433 4.60423 6.22117 4.78195 6.44051 4.78195V4.28196ZM6.73491 4.28196H6.44051V4.78195H6.73491V4.28196ZM6.63212 4.38474C6.63212 4.32796 6.67821 4.28196 6.73491 4.28196V4.78195C6.9542 4.78195 7.13212 4.60425 7.13212 4.38474H6.63212ZM6.63212 4.09035V4.38474H7.13212V4.09035H6.63212ZM6.73491 4.19314C6.67823 4.19314 6.63212 4.14713 6.63212 4.09035H7.13212C7.13212 3.87079 6.95418 3.69314 6.73491 3.69314V4.19314ZM11.1243 6.3778H4.87241V6.8778H11.1243V6.3778ZM11.5976 6.85108C11.5976 6.58952 11.3856 6.3778 11.1243 6.3778V6.8778C11.1096 6.8778 11.0976 6.86582 11.0976 6.85108H11.5976ZM11.5976 11.3549V6.85108H11.0976V11.3549H11.5976ZM10.2681 12.6831C11.0011 12.6831 11.5976 12.0879 11.5976 11.3549H11.0976C11.0976 11.8112 10.7255 12.1831 10.2681 12.1831V12.6831ZM10.0079 12.6831H10.2681V12.1831H10.0079V12.6831ZM10.2579 13.7741V12.4331H9.7579V13.7741H10.2579ZM9.11477 14.916C9.74498 14.916 10.2579 14.4042 10.2579 13.7741H9.7579C9.7579 14.1274 9.46951 14.416 9.11477 14.416V14.916ZM7.97164 13.7741C7.97164 14.4042 8.48457 14.916 9.11477 14.916V14.416C8.76003 14.416 8.47164 14.1274 8.47164 13.7741H7.97164ZM7.97164 12.4331V13.7741H8.47164V12.4331H7.97164ZM7.77508 12.6831H8.22164V12.1831H7.77508V12.6831ZM8.02508 13.7741V12.4331H7.52508V13.7741H8.02508ZM6.88195 14.916C7.51215 14.916 8.02508 14.4042 8.02508 13.7741H7.52508C7.52508 14.1274 7.23669 14.416 6.88195 14.416V14.916ZM5.73882 13.7741C5.73882 14.4042 6.25174 14.916 6.88195 14.916V14.416C6.52721 14.416 6.23882 14.1274 6.23882 13.7741H5.73882ZM5.73882 12.4331V13.7741H6.23882V12.4331H5.73882ZM5.72858 12.6831H5.98882V12.1831H5.72858V12.6831ZM4.39913 11.3549C4.39913 12.0879 4.99561 12.6831 5.72858 12.6831V12.1831C5.27119 12.1831 4.89913 11.8112 4.89913 11.3549H4.39913ZM4.39913 6.85108V11.3549H4.89913V6.85108H4.39913ZM4.87241 6.3778C4.61112 6.3778 4.39913 6.58952 4.39913 6.85108H4.89913C4.89913 6.86582 4.8871 6.8778 4.87241 6.8778V6.3778ZM10.651 11.3549C10.651 11.5646 10.4795 11.7366 10.2681 11.7366V12.2366C10.7548 12.2366 11.151 11.8416 11.151 11.3549H10.651ZM10.651 7.07436V11.3549H11.151V7.07436H10.651ZM5.09569 7.32436H10.901V6.82436H5.09569V7.32436ZM5.34569 11.3549V7.07436H4.84569V11.3549H5.34569ZM5.72858 11.7366C5.51724 11.7366 5.34569 11.5646 5.34569 11.3549H4.84569C4.84569 11.8416 5.24195 12.2366 5.72858 12.2366V11.7366ZM6.2121 11.7366H5.72858V12.2366H6.2121V11.7366ZM6.68538 12.2099C6.68538 11.9483 6.47339 11.7366 6.2121 11.7366V12.2366C6.19741 12.2366 6.18538 12.2246 6.18538 12.2099H6.68538ZM6.68538 13.7741V12.2099H6.18538V13.7741H6.68538ZM6.88195 13.9694C6.77305 13.9694 6.68538 13.8809 6.68538 13.7741H6.18538C6.18538 14.1584 6.49828 14.4694 6.88195 14.4694V13.9694ZM7.07851 13.7741C7.07851 13.8809 6.99084 13.9694 6.88195 13.9694V14.4694C7.26561 14.4694 7.57851 14.1584 7.57851 13.7741H7.07851ZM7.07851 12.2099V13.7741H7.57851V12.2099H7.07851ZM7.5518 11.7366C7.29051 11.7366 7.07851 11.9483 7.07851 12.2099H7.57851C7.57851 12.2246 7.56649 12.2366 7.5518 12.2366V11.7366ZM8.44492 11.7366H7.5518V12.2366H8.44492V11.7366ZM8.91821 12.2099C8.91821 11.9483 8.70621 11.7366 8.44492 11.7366V12.2366C8.43023 12.2366 8.41821 12.2246 8.41821 12.2099H8.91821ZM8.91821 13.7741V12.2099H8.41821V13.7741H8.91821ZM9.11477 13.9694C9.00588 13.9694 8.91821 13.8809 8.91821 13.7741H8.41821C8.41821 14.1584 8.7311 14.4694 9.11477 14.4694V13.9694ZM9.31134 13.7741C9.31134 13.8809 9.22366 13.9694 9.11477 13.9694V14.4694C9.49844 14.4694 9.81134 14.1584 9.81134 13.7741H9.31134ZM9.31134 12.2099V13.7741H9.81134V12.2099H9.31134ZM9.78462 11.7366C9.52333 11.7366 9.31134 11.9483 9.31134 12.2099H9.81134C9.81134 12.2246 9.79931 12.2366 9.78462 12.2366V11.7366ZM10.2681 11.7366H9.78462V12.2366H10.2681V11.7366ZM12.3519 7.41158C12.3519 7.11808 12.5909 6.87922 12.8834 6.87922V6.37922C12.3142 6.37922 11.8519 6.84249 11.8519 7.41158H12.3519ZM12.3519 10.5358V7.41158H11.8519V10.5358H12.3519ZM12.8834 11.0681C12.5909 11.0681 12.3519 10.8293 12.3519 10.5358H11.8519C11.8519 11.1049 12.3142 11.5681 12.8834 11.5681V11.0681ZM13.4149 10.5358C13.4149 10.8293 13.1759 11.0681 12.8834 11.0681V11.5681C13.4526 11.5681 13.9149 11.1049 13.9149 10.5358H13.4149ZM13.4149 7.41158V10.5358H13.9149V7.41158H13.4149ZM12.8834 6.87922C13.1759 6.87922 13.4149 7.11808 13.4149 7.41158H13.9149C13.9149 6.84249 13.4526 6.37922 12.8834 6.37922V6.87922ZM12.8834 11.1216C13.2068 11.1216 13.4683 10.8584 13.4683 10.5358H12.9683C12.9683 10.5835 12.9294 10.6216 12.8834 10.6216V11.1216ZM12.2985 10.5358C12.2985 10.8584 12.56 11.1216 12.8834 11.1216V10.6216C12.8374 10.6216 12.7985 10.5835 12.7985 10.5358H12.2985ZM12.2985 7.41158V10.5358H12.7985V7.41158H12.2985ZM12.8834 6.82578C12.56 6.82578 12.2985 7.08901 12.2985 7.41158H12.7985C12.7985 7.36389 12.8374 7.32578 12.8834 7.32578V6.82578ZM13.4683 7.41158C13.4683 7.08901 13.2068 6.82578 12.8834 6.82578V7.32578C12.9294 7.32578 12.9683 7.3639 12.9683 7.41158H13.4683ZM13.4683 10.5358V7.41158H12.9683V10.5358H13.4683ZM3.10888 6.37922C2.53967 6.37922 2.07739 6.84249 2.07739 7.41158H2.57739C2.57739 7.11808 2.81636 6.87922 3.10888 6.87922V6.37922ZM4.14037 7.41158C4.14037 6.84249 3.67809 6.37922 3.10888 6.37922V6.87922C3.4014 6.87922 3.64037 7.11808 3.64037 7.41158H4.14037ZM4.14037 10.5358V7.41158H3.64037V10.5358H4.14037ZM3.10888 11.5681C3.67809 11.5681 4.14037 11.1049 4.14037 10.5358H3.64037C3.64037 10.8293 3.4014 11.0681 3.10888 11.0681V11.5681ZM2.07739 10.5358C2.07739 11.1049 2.53967 11.5681 3.10888 11.5681V11.0681C2.81636 11.0681 2.57739 10.8293 2.57739 10.5358H2.07739ZM2.07739 7.41158V10.5358H2.57739V7.41158H2.07739ZM3.1938 10.5358C3.1938 10.5835 3.15486 10.6216 3.10888 10.6216V11.1216C3.43226 11.1216 3.6938 10.8584 3.6938 10.5358H3.1938ZM3.1938 7.41158V10.5358H3.6938V7.41158H3.1938ZM3.10888 7.32578C3.15486 7.32578 3.1938 7.3639 3.1938 7.41158H3.6938C3.6938 7.08901 3.43226 6.82578 3.10888 6.82578V7.32578ZM3.02396 7.41158C3.02396 7.3639 3.0629 7.32578 3.10888 7.32578V6.82578C2.7855 6.82578 2.52396 7.08901 2.52396 7.41158H3.02396ZM3.02396 10.5358V7.41158H2.52396V10.5358H3.02396ZM3.10888 10.6216C3.0629 10.6216 3.02396 10.5835 3.02396 10.5358H2.52396C2.52396 10.8584 2.78551 11.1216 3.10888 11.1216V10.6216Z" fill="#B0B0B0" mask="url(#path-1-outside-1_22_5040)"/>
<path opacity="0.4" d="M23.179 12H22.2557L24.9261 4.72727H25.8352L28.5057 12H27.5824L25.4091 5.87784H25.3523L23.179 12ZM23.5199 9.15909H27.2415V9.94034H23.5199V9.15909ZM30.3629 8.71875V12H29.5249V6.54545H30.3345V7.39773H30.4055C30.5334 7.12074 30.7275 6.8982 30.9879 6.73011C31.2483 6.55966 31.5845 6.47443 31.9964 6.47443C32.3658 6.47443 32.6889 6.55019 32.9659 6.7017C33.2429 6.85085 33.4583 7.07812 33.6122 7.38352C33.7661 7.68655 33.843 8.07008 33.843 8.53409V12H33.005V8.59091C33.005 8.16241 32.8937 7.8286 32.6712 7.58949C32.4486 7.34801 32.1432 7.22727 31.755 7.22727C31.4875 7.22727 31.2483 7.28527 31.0376 7.40128C30.8293 7.51728 30.6648 7.68655 30.544 7.90909C30.4233 8.13163 30.3629 8.40152 30.3629 8.71875ZM37.4341 12.1136C36.9796 12.1136 36.5783 11.9988 36.2303 11.7692C35.8823 11.5372 35.61 11.2105 35.4135 10.7891C35.217 10.3653 35.1188 9.86458 35.1188 9.28693C35.1188 8.71402 35.217 8.21686 35.4135 7.79545C35.61 7.37405 35.8835 7.04853 36.2338 6.81889C36.5842 6.58925 36.9891 6.47443 37.4483 6.47443C37.8034 6.47443 38.084 6.53362 38.29 6.65199C38.4983 6.76799 38.6569 6.90057 38.7658 7.04972C38.8771 7.1965 38.9635 7.31723 39.025 7.41193H39.0961V4.72727H39.9341V12H39.1245V11.1619H39.025C38.9635 11.2614 38.8759 11.3868 38.7623 11.5384C38.6486 11.6875 38.4864 11.8213 38.2757 11.9396C38.065 12.0556 37.7845 12.1136 37.4341 12.1136ZM37.5478 11.3608C37.8839 11.3608 38.168 11.2732 38.4 11.098C38.632 10.9205 38.8084 10.6754 38.9292 10.3629C39.0499 10.0481 39.1103 9.68466 39.1103 9.27273C39.1103 8.86553 39.0511 8.50923 38.9327 8.20384C38.8143 7.89607 38.6391 7.65696 38.4071 7.48651C38.1751 7.31368 37.8887 7.22727 37.5478 7.22727C37.1926 7.22727 36.8967 7.31842 36.66 7.50071C36.4256 7.68063 36.2492 7.92566 36.1309 8.2358C36.0149 8.54356 35.9569 8.8892 35.9569 9.27273C35.9569 9.66098 36.016 10.0137 36.1344 10.331C36.2551 10.6458 36.4327 10.8968 36.6671 11.0838C36.9038 11.2685 37.1974 11.3608 37.5478 11.3608ZM41.5854 12V6.54545H42.3951V7.36932H42.4519C42.5513 7.09943 42.7312 6.88045 42.9917 6.71236C43.2521 6.54427 43.5456 6.46023 43.8723 6.46023C43.9339 6.46023 44.0108 6.46141 44.1032 6.46378C44.1955 6.46615 44.2653 6.4697 44.3127 6.47443V7.3267C44.2843 7.3196 44.2192 7.30895 44.1174 7.29474C44.0179 7.27817 43.9126 7.26989 43.8013 7.26989C43.5362 7.26989 43.2994 7.32552 43.0911 7.43679C42.8851 7.54569 42.7218 7.69721 42.601 7.89134C42.4827 8.0831 42.4235 8.30208 42.4235 8.5483V12H41.5854ZM47.356 12.1136C46.8636 12.1136 46.4315 11.9964 46.0598 11.7621C45.6905 11.5277 45.4017 11.1998 45.1934 10.7784C44.9874 10.357 44.8844 9.86458 44.8844 9.30114C44.8844 8.73295 44.9874 8.23698 45.1934 7.81321C45.4017 7.38944 45.6905 7.06037 46.0598 6.82599C46.4315 6.59162 46.8636 6.47443 47.356 6.47443C47.8484 6.47443 48.2793 6.59162 48.6486 6.82599C49.0203 7.06037 49.3091 7.38944 49.5151 7.81321C49.7234 8.23698 49.8276 8.73295 49.8276 9.30114C49.8276 9.86458 49.7234 10.357 49.5151 10.7784C49.3091 11.1998 49.0203 11.5277 48.6486 11.7621C48.2793 11.9964 47.8484 12.1136 47.356 12.1136ZM47.356 11.3608C47.7301 11.3608 48.0378 11.2649 48.2793 11.0732C48.5208 10.8814 48.6995 10.6293 48.8155 10.3168C48.9315 10.0043 48.9895 9.66572 48.9895 9.30114C48.9895 8.93655 48.9315 8.59683 48.8155 8.28196C48.6995 7.96709 48.5208 7.71259 48.2793 7.51847C48.0378 7.32434 47.7301 7.22727 47.356 7.22727C46.9819 7.22727 46.6742 7.32434 46.4327 7.51847C46.1912 7.71259 46.0125 7.96709 45.8965 8.28196C45.7805 8.59683 45.7225 8.93655 45.7225 9.30114C45.7225 9.66572 45.7805 10.0043 45.8965 10.3168C46.0125 10.6293 46.1912 10.8814 46.4327 11.0732C46.6742 11.2649 46.9819 11.3608 47.356 11.3608ZM51.1069 12V6.54545H51.945V12H51.1069ZM51.533 5.63636C51.3697 5.63636 51.2288 5.58073 51.1104 5.46946C50.9944 5.35819 50.9364 5.22443 50.9364 5.06818C50.9364 4.91193 50.9944 4.77817 51.1104 4.6669C51.2288 4.55563 51.3697 4.5 51.533 4.5C51.6964 4.5 51.8361 4.55563 51.9521 4.6669C52.0704 4.77817 52.1296 4.91193 52.1296 5.06818C52.1296 5.22443 52.0704 5.35819 51.9521 5.46946C51.8361 5.58073 51.6964 5.63636 51.533 5.63636ZM55.5396 12.1136C55.085 12.1136 54.6838 11.9988 54.3358 11.7692C53.9877 11.5372 53.7155 11.2105 53.519 10.7891C53.3225 10.3653 53.2243 9.86458 53.2243 9.28693C53.2243 8.71402 53.3225 8.21686 53.519 7.79545C53.7155 7.37405 53.9889 7.04853 54.3393 6.81889C54.6897 6.58925 55.0945 6.47443 55.5538 6.47443C55.9089 6.47443 56.1895 6.53362 56.3954 6.65199C56.6038 6.76799 56.7624 6.90057 56.8713 7.04972C56.9825 7.1965 57.069 7.31723 57.1305 7.41193H57.2015V4.72727H58.0396V12H57.2299V11.1619H57.1305C57.069 11.2614 56.9814 11.3868 56.8677 11.5384C56.7541 11.6875 56.5919 11.8213 56.3812 11.9396C56.1705 12.0556 55.89 12.1136 55.5396 12.1136ZM55.6532 11.3608C55.9894 11.3608 56.2735 11.2732 56.5055 11.098C56.7375 10.9205 56.9139 10.6754 57.0346 10.3629C57.1554 10.0481 57.2157 9.68466 57.2157 9.27273C57.2157 8.86553 57.1565 8.50923 57.0382 8.20384C56.9198 7.89607 56.7446 7.65696 56.5126 7.48651C56.2806 7.31368 55.9941 7.22727 55.6532 7.22727C55.2981 7.22727 55.0022 7.31842 54.7654 7.50071C54.5311 7.68063 54.3547 7.92566 54.2363 8.2358C54.1203 8.54356 54.0623 8.8892 54.0623 9.27273C54.0623 9.66098 54.1215 10.0137 54.2399 10.331C54.3606 10.6458 54.5382 10.8968 54.7725 11.0838C55.0093 11.2685 55.3029 11.3608 55.6532 11.3608Z" fill="black"/>
</svg>
