<svg width="14" height="14" viewBox="0 0 14 14" fill="none" xmlns="http://www.w3.org/2000/svg">
<path d="M3.8949 13.4432V3.56072C3.8949 3.06167 4.05387 2.65921 4.37182 2.35334C4.69378 2.04747 5.11436 1.89453 5.63353 1.89453H10.3846C10.8998 1.89453 11.3123 2.04747 11.6222 2.35334C11.9361 2.65921 12.0931 3.06167 12.0931 3.56072V13.4432C12.0931 13.9422 11.9361 14.3447 11.6222 14.6506C11.3123 14.9564 10.8998 15.1094 10.3846 15.1094H5.63353C5.11436 15.1094 4.69378 14.9564 4.37182 14.6506C4.05387 14.3447 3.8949 13.9422 3.8949 13.4432ZM5.08417 12.8335H10.9098V4.17045H5.08417V12.8335ZM8.00605 14.4393C8.15496 14.4393 8.28375 14.3849 8.39241 14.2763C8.5051 14.1676 8.56145 14.0348 8.56145 13.8778C8.56145 13.7249 8.5051 13.5941 8.39241 13.4854C8.28375 13.3768 8.15496 13.3224 8.00605 13.3224C7.84909 13.3224 7.71426 13.3768 7.60157 13.4854C7.49291 13.5941 7.43858 13.7249 7.43858 13.8778C7.43858 14.0348 7.49291 14.1676 7.60157 14.2763C7.71426 14.3849 7.84909 14.4393 8.00605 14.4393ZM6.76848 3.0657C6.76848 3.14619 6.79262 3.20857 6.84092 3.25284C6.88922 3.29711 6.9516 3.31925 7.02807 3.31925H8.96592C9.04239 3.31925 9.10477 3.29711 9.15307 3.25284C9.20136 3.20857 9.22551 3.14619 9.22551 3.0657C9.22551 2.98923 9.20136 2.92886 9.15307 2.88459C9.10477 2.83629 9.04239 2.81214 8.96592 2.81214H7.02807C6.9516 2.81214 6.88922 2.83629 6.84092 2.88459C6.79262 2.92886 6.76848 2.98923 6.76848 3.0657Z" fill="#B0B0B0"/>
</svg>
