<svg width="39" height="16" viewBox="0 0 39 16" fill="none" xmlns="http://www.w3.org/2000/svg">
<path d="M3.8949 12.9432V3.06072C3.8949 2.56167 4.05387 2.15921 4.37182 1.85334C4.69378 1.54747 5.11436 1.39453 5.63353 1.39453H10.3846C10.8998 1.39453 11.3123 1.54747 11.6222 1.85334C11.9361 2.15921 12.0931 2.56167 12.0931 3.06072V12.9432C12.0931 13.4422 11.9361 13.8447 11.6222 14.1506C11.3123 14.4564 10.8998 14.6094 10.3846 14.6094H5.63353C5.11436 14.6094 4.69378 14.4564 4.37182 14.1506C4.05387 13.8447 3.8949 13.4422 3.8949 12.9432ZM5.08417 12.3335H10.9098V3.67045H5.08417V12.3335ZM8.00605 13.9393C8.15496 13.9393 8.28375 13.8849 8.39241 13.7763C8.5051 13.6676 8.56145 13.5348 8.56145 13.3778C8.56145 13.2249 8.5051 13.0941 8.39241 12.9854C8.28375 12.8768 8.15496 12.8224 8.00605 12.8224C7.84909 12.8224 7.71426 12.8768 7.60157 12.9854C7.49291 13.0941 7.43858 13.2249 7.43858 13.3778C7.43858 13.5348 7.49291 13.6676 7.60157 13.7763C7.71426 13.8849 7.84909 13.9393 8.00605 13.9393ZM6.76848 2.5657C6.76848 2.64619 6.79262 2.70857 6.84092 2.75284C6.88922 2.79711 6.9516 2.81925 7.02807 2.81925H8.96592C9.04239 2.81925 9.10477 2.79711 9.15307 2.75284C9.20136 2.70857 9.22551 2.64619 9.22551 2.5657C9.22551 2.48923 9.20136 2.42886 9.15307 2.38459C9.10477 2.33629 9.04239 2.31214 8.96592 2.31214H7.02807C6.9516 2.31214 6.88922 2.33629 6.84092 2.38459C6.79262 2.42886 6.76848 2.48923 6.76848 2.5657Z" fill="#B0B0B0"/>
<path opacity="0.4" d="M22.767 12V6.54545H23.6051V12H22.767ZM23.1932 5.63636C23.0298 5.63636 22.889 5.58073 22.7706 5.46946C22.6546 5.35819 22.5966 5.22443 22.5966 5.06818C22.5966 4.91193 22.6546 4.77817 22.7706 4.6669C22.889 4.55563 23.0298 4.5 23.1932 4.5C23.3565 4.5 23.4962 4.55563 23.6122 4.6669C23.7306 4.77817 23.7898 4.91193 23.7898 5.06818C23.7898 5.22443 23.7306 5.35819 23.6122 5.46946C23.4962 5.58073 23.3565 5.63636 23.1932 5.63636ZM31.3901 8.36364C31.3901 9.13068 31.2516 9.79356 30.9746 10.3523C30.6976 10.911 30.3176 11.3419 29.8347 11.6449C29.3517 11.9479 28.8001 12.0994 28.1799 12.0994C27.5596 12.0994 27.008 11.9479 26.525 11.6449C26.0421 11.3419 25.6621 10.911 25.3851 10.3523C25.1081 9.79356 24.9696 9.13068 24.9696 8.36364C24.9696 7.59659 25.1081 6.93371 25.3851 6.375C25.6621 5.81629 26.0421 5.38542 26.525 5.08239C27.008 4.77936 27.5596 4.62784 28.1799 4.62784C28.8001 4.62784 29.3517 4.77936 29.8347 5.08239C30.3176 5.38542 30.6976 5.81629 30.9746 6.375C31.2516 6.93371 31.3901 7.59659 31.3901 8.36364ZM30.5378 8.36364C30.5378 7.7339 30.4325 7.20241 30.2218 6.76918C30.0134 6.33594 29.7305 6.00805 29.373 5.78551C29.0179 5.56297 28.6202 5.4517 28.1799 5.4517C27.7395 5.4517 27.3406 5.56297 26.9831 5.78551C26.628 6.00805 26.3451 6.33594 26.1344 6.76918C25.9261 7.20241 25.8219 7.7339 25.8219 8.36364C25.8219 8.99337 25.9261 9.52486 26.1344 9.9581C26.3451 10.3913 26.628 10.7192 26.9831 10.9418C27.3406 11.1643 27.7395 11.2756 28.1799 11.2756C28.6202 11.2756 29.0179 11.1643 29.373 10.9418C29.7305 10.7192 30.0134 10.3913 30.2218 9.9581C30.4325 9.52486 30.5378 8.99337 30.5378 8.36364ZM36.8482 6.54545C36.8056 6.18561 36.6328 5.90625 36.3297 5.70739C36.0267 5.50852 35.655 5.40909 35.2147 5.40909C34.8927 5.40909 34.611 5.46117 34.3695 5.56534C34.1304 5.66951 33.9434 5.81274 33.8084 5.99503C33.6758 6.17732 33.6096 6.38447 33.6096 6.61648C33.6096 6.81061 33.6557 6.97751 33.748 7.11719C33.8427 7.2545 33.9635 7.36932 34.1103 7.46165C34.257 7.55161 34.4109 7.62618 34.5719 7.68537C34.7329 7.74219 34.8809 7.78835 35.0158 7.82386L35.7544 8.02273C35.9438 8.07244 36.1545 8.1411 36.3865 8.22869C36.6209 8.31629 36.8446 8.43584 37.0577 8.58736C37.2731 8.73651 37.4507 8.92827 37.5904 9.16264C37.7301 9.39702 37.7999 9.68466 37.7999 10.0256C37.7999 10.4186 37.6969 10.7737 37.4909 11.0909C37.2873 11.4081 36.9891 11.6603 36.5961 11.8473C36.2054 12.0343 35.7308 12.1278 35.1721 12.1278C34.6512 12.1278 34.2002 12.0438 33.8191 11.8757C33.4403 11.7076 33.142 11.4732 32.9242 11.1726C32.7087 10.8719 32.5868 10.5227 32.5584 10.125H33.4675C33.4912 10.3996 33.5835 10.6269 33.7445 10.8068C33.9078 10.9844 34.1138 11.117 34.3624 11.2045C34.6133 11.2898 34.8832 11.3324 35.1721 11.3324C35.5082 11.3324 35.8101 11.2779 36.0776 11.169C36.3451 11.0578 36.557 10.9039 36.7132 10.7074C36.8695 10.5085 36.9476 10.2765 36.9476 10.0114C36.9476 9.76989 36.8801 9.57339 36.7452 9.42188C36.6103 9.27036 36.4327 9.14725 36.2125 9.05256C35.9924 8.95786 35.7544 8.875 35.4988 8.80398L34.6039 8.5483C34.0357 8.38494 33.5859 8.15175 33.2544 7.84872C32.923 7.54569 32.7573 7.14915 32.7573 6.65909C32.7573 6.25189 32.8674 5.89678 33.0875 5.59375C33.3101 5.28835 33.6084 5.05161 33.9824 4.88352C34.3588 4.71307 34.7791 4.62784 35.2431 4.62784C35.7118 4.62784 36.1285 4.71188 36.4931 4.87997C36.8577 5.04569 37.1465 5.27296 37.3596 5.56179C37.575 5.85062 37.6886 6.1785 37.7005 6.54545H36.8482Z" fill="black"/>
</svg>
